<svg width="30" height="30" viewBox="0 0 30 30" fill="none" xmlns="http://www.w3.org/2000/svg">
<path d="M15 8.18182C11.2364 8.18182 8.18182 11.2364 8.18182 15C8.18182 18.7636 11.2364 21.8182 15 21.8182C18.7636 21.8182 21.8182 18.7636 21.8182 15C21.8182 11.2364 18.7636 8.18182 15 8.18182ZM1.36364 16.3636H4.09091C4.84091 16.3636 5.45455 15.75 5.45455 15C5.45455 14.25 4.84091 13.6364 4.09091 13.6364H1.36364C0.613636 13.6364 0 14.25 0 15C0 15.75 0.613636 16.3636 1.36364 16.3636ZM25.9091 16.3636H28.6364C29.3864 16.3636 30 15.75 30 15C30 14.25 29.3864 13.6364 28.6364 13.6364H25.9091C25.1591 13.6364 24.5455 14.25 24.5455 15C24.5455 15.75 25.1591 16.3636 25.9091 16.3636ZM13.6364 1.36364V4.09091C13.6364 4.84091 14.25 5.45455 15 5.45455C15.75 5.45455 16.3636 4.84091 16.3636 4.09091V1.36364C16.3636 0.613636 15.75 0 15 0C14.25 0 13.6364 0.613636 13.6364 1.36364ZM13.6364 25.9091V28.6364C13.6364 29.3864 14.25 30 15 30C15.75 30 16.3636 29.3864 16.3636 28.6364V25.9091C16.3636 25.1591 15.75 24.5455 15 24.5455C14.25 24.5455 13.6364 25.1591 13.6364 25.9091ZM6.80455 4.88182C6.67839 4.7554 6.52854 4.65511 6.36358 4.58668C6.19862 4.51825 6.02177 4.48303 5.84318 4.48303C5.66459 4.48303 5.48775 4.51825 5.32278 4.58668C5.15782 4.65511 5.00797 4.7554 4.88182 4.88182C4.7554 5.00797 4.65511 5.15782 4.58668 5.32278C4.51825 5.48775 4.48303 5.66459 4.48303 5.84318C4.48303 6.02177 4.51825 6.19862 4.58668 6.36358C4.65511 6.52854 4.7554 6.67839 4.88182 6.80455L6.32727 8.25C6.85909 8.78182 7.73182 8.78182 8.25 8.25C8.76818 7.71818 8.78182 6.84545 8.25 6.32727L6.80455 4.88182ZM23.6727 21.75C23.5466 21.6236 23.3967 21.5233 23.2318 21.4549C23.0668 21.3864 22.89 21.3512 22.7114 21.3512C22.5328 21.3512 22.3559 21.3864 22.191 21.4549C22.026 21.5233 21.8762 21.6236 21.75 21.75C21.6236 21.8762 21.5233 22.026 21.4549 22.191C21.3864 22.3559 21.3512 22.5328 21.3512 22.7114C21.3512 22.89 21.3864 23.0668 21.4549 23.2318C21.5233 23.3967 21.6236 23.5466 21.75 23.6727L23.1955 25.1182C23.7273 25.65 24.6 25.65 25.1182 25.1182C25.2446 24.992 25.3449 24.8422 25.4133 24.6772C25.4817 24.5123 25.517 24.3354 25.517 24.1568C25.517 23.9782 25.4817 23.8014 25.4133 23.6364C25.3449 23.4715 25.2446 23.3216 25.1182 23.1955L23.6727 21.75ZM25.1182 6.80455C25.2446 6.67839 25.3449 6.52854 25.4133 6.36358C25.4817 6.19862 25.517 6.02177 25.517 5.84318C25.517 5.66459 25.4817 5.48775 25.4133 5.32278C25.3449 5.15782 25.2446 5.00797 25.1182 4.88182C24.992 4.7554 24.8422 4.65511 24.6772 4.58668C24.5123 4.51825 24.3354 4.48303 24.1568 4.48303C23.9782 4.48303 23.8014 4.51825 23.6364 4.58668C23.4715 4.65511 23.3216 4.7554 23.1955 4.88182L21.75 6.32727C21.2182 6.85909 21.2182 7.73182 21.75 8.25C22.2818 8.76818 23.1545 8.78182 23.6727 8.25L25.1182 6.80455ZM8.25 23.6727C8.37641 23.5466 8.47671 23.3967 8.54514 23.2318C8.61356 23.0668 8.64879 22.89 8.64879 22.7114C8.64879 22.5328 8.61356 22.3559 8.54514 22.191C8.47671 22.026 8.37641 21.8762 8.25 21.75C8.12385 21.6236 7.974 21.5233 7.80903 21.4549C7.64407 21.3864 7.46723 21.3512 7.28864 21.3512C7.11004 21.3512 6.9332 21.3864 6.76824 21.4549C6.60328 21.5233 6.45343 21.6236 6.32727 21.75L4.88182 23.1955C4.35 23.7273 4.35 24.6 4.88182 25.1182C5.41364 25.6364 6.28636 25.65 6.80455 25.1182L8.25 23.6727Z" fill="#61AFEF"/>
</svg>
